<svg xmlns="http://www.w3.org/2000/svg" version="1.1" xmlns:xlink="http://www.w3.org/1999/xlink" xmlns:svgjs="http://svgjs.dev/svgjs" width="1440" height="800" preserveAspectRatio="none" viewBox="0 0 1440 800"><g mask="url(&quot;#SvgjsMask1016&quot;)" fill="none"><rect width="1440" height="800" x="0" y="0" fill="rgba(14, 42, 71, 1)"></rect><path d="M-68.19 498.26L-68.19 498.26" stroke="rgba(12, 50, 65, 1)" stroke-width="1.5"></path><path d="M-68.19 498.26L107.55 532.66" stroke="rgba(12, 50, 65, 1)" stroke-width="1.5"></path><path d="M-68.19 498.26L198.81 509.19" stroke="rgba(12, 50, 65, 1)" stroke-width="1.5"></path><path d="M-62.89 814.64L-62.89 814.64" stroke="rgba(12, 50, 65, 1)" stroke-width="1.5"></path><path d="M-62.89 814.64L-77.74 973.28" stroke="rgba(12, 50, 65, 1)" stroke-width="1.5"></path><path d="M-62.89 814.64L89.48 961.31" stroke="rgba(12, 50, 65, 1)" stroke-width="1.5"></path><path d="M-62.89 814.64L221.72 799.11" stroke="rgba(12, 50, 65, 1)" stroke-width="1.5"></path><path d="M-62.89 814.64L-68.19 498.26" stroke="rgba(12, 50, 65, 1)" stroke-width="1.5"></path><path d="M-62.89 814.64L107.55 532.66" stroke="rgba(12, 50, 65, 1)" stroke-width="1.5"></path><path d="M-62.89 814.64L256.27 980.85" stroke="rgba(12, 50, 65, 1)" stroke-width="1.5"></path><path d="M-77.74 973.28L-77.74 973.28" stroke="rgba(12, 50, 65, 1)" stroke-width="1.5"></path><path d="M-77.74 973.28L89.48 961.31" stroke="rgba(12, 50, 65, 1)" stroke-width="1.5"></path><path d="M-77.74 973.28L256.27 980.85" stroke="rgba(12, 50, 65, 1)" stroke-width="1.5"></path><path d="M107.55 532.66L107.55 532.66" stroke="rgba(12, 50, 65, 1)" stroke-width="1.5"></path><path d="M107.55 532.66L198.81 509.19" stroke="rgba(12, 50, 65, 1)" stroke-width="1.5"></path><path d="M107.55 532.66L344.93 672.13" stroke="rgba(12, 50, 65, 1)" stroke-width="1.5"></path><path d="M107.55 532.66L221.72 799.11" stroke="rgba(12, 50, 65, 1)" stroke-width="1.5"></path><path d="M107.55 532.66L503.57 543.17" stroke="rgba(12, 50, 65, 1)" stroke-width="1.5"></path><path d="M89.48 961.31L89.48 961.31" stroke="rgba(12, 50, 65, 1)" stroke-width="1.5"></path><path d="M89.48 961.31L256.27 980.85" stroke="rgba(12, 50, 65, 1)" stroke-width="1.5"></path><path d="M89.48 961.31L221.72 799.11" stroke="rgba(12, 50, 65, 1)" stroke-width="1.5"></path><path d="M89.48 961.31L396.92 954.53" stroke="rgba(12, 50, 65, 1)" stroke-width="1.5"></path><path d="M89.48 961.31L405.67 814.96" stroke="rgba(12, 50, 65, 1)" stroke-width="1.5"></path><path d="M198.81 509.19L198.81 509.19" stroke="rgba(12, 50, 65, 1)" stroke-width="1.5"></path><path d="M198.81 509.19L344.93 672.13" stroke="rgba(12, 50, 65, 1)" stroke-width="1.5"></path><path d="M221.72 799.11L221.72 799.11" stroke="rgba(12, 50, 65, 1)" stroke-width="1.5"></path><path d="M221.72 799.11L344.93 672.13" stroke="rgba(12, 50, 65, 1)" stroke-width="1.5"></path><path d="M221.72 799.11L405.67 814.96" stroke="rgba(12, 50, 65, 1)" stroke-width="1.5"></path><path d="M221.72 799.11L256.27 980.85" stroke="rgba(12, 50, 65, 1)" stroke-width="1.5"></path><path d="M221.72 799.11L396.92 954.53" stroke="rgba(12, 50, 65, 1)" stroke-width="1.5"></path><path d="M256.27 980.85L256.27 980.85" stroke="rgba(12, 50, 65, 1)" stroke-width="1.5"></path><path d="M256.27 980.85L396.92 954.53" stroke="rgba(12, 50, 65, 1)" stroke-width="1.5"></path><path d="M344.93 672.13L344.93 672.13" stroke="rgba(12, 50, 65, 1)" stroke-width="1.5"></path><path d="M344.93 672.13L405.67 814.96" stroke="rgba(12, 50, 65, 1)" stroke-width="1.5"></path><path d="M344.93 672.13L532.96 653.55" stroke="rgba(12, 50, 65, 1)" stroke-width="1.5"></path><path d="M344.93 672.13L503.57 543.17" stroke="rgba(12, 50, 65, 1)" stroke-width="1.5"></path><path d="M405.67 814.96L405.67 814.96" stroke="rgba(12, 50, 65, 1)" stroke-width="1.5"></path><path d="M405.67 814.96L396.92 954.53" stroke="rgba(12, 50, 65, 1)" stroke-width="1.5"></path><path d="M405.67 814.96L553.76 813.18" stroke="rgba(12, 50, 65, 1)" stroke-width="1.5"></path><path d="M396.92 954.53L396.92 954.53" stroke="rgba(12, 50, 65, 1)" stroke-width="1.5"></path><path d="M396.92 954.53L511.15 1012" stroke="rgba(12, 50, 65, 1)" stroke-width="1.5"></path><path d="M396.92 954.53L553.76 813.18" stroke="rgba(12, 50, 65, 1)" stroke-width="1.5"></path><path d="M503.57 543.17L503.57 543.17" stroke="rgba(12, 50, 65, 1)" stroke-width="1.5"></path><path d="M503.57 543.17L532.96 653.55" stroke="rgba(12, 50, 65, 1)" stroke-width="1.5"></path><path d="M503.57 543.17L697.47 661.01" stroke="rgba(12, 50, 65, 1)" stroke-width="1.5"></path><path d="M503.57 543.17L553.76 813.18" stroke="rgba(12, 50, 65, 1)" stroke-width="1.5"></path><path d="M503.57 543.17L693.59 342.62" stroke="rgba(12, 50, 65, 1)" stroke-width="1.5"></path><path d="M503.57 543.17L405.67 814.96" stroke="rgba(12, 50, 65, 1)" stroke-width="1.5"></path><path d="M532.96 653.55L532.96 653.55" stroke="rgba(12, 50, 65, 1)" stroke-width="1.5"></path><path d="M532.96 653.55L553.76 813.18" stroke="rgba(12, 50, 65, 1)" stroke-width="1.5"></path><path d="M532.96 653.55L697.47 661.01" stroke="rgba(12, 50, 65, 1)" stroke-width="1.5"></path><path d="M553.76 813.18L553.76 813.18" stroke="rgba(12, 50, 65, 1)" stroke-width="1.5"></path><path d="M553.76 813.18L706.32 826.38" stroke="rgba(12, 50, 65, 1)" stroke-width="1.5"></path><path d="M553.76 813.18L511.15 1012" stroke="rgba(12, 50, 65, 1)" stroke-width="1.5"></path><path d="M511.15 1012L511.15 1012" stroke="rgba(12, 50, 65, 1)" stroke-width="1.5"></path><path d="M693.59 342.62L693.59 342.62" stroke="rgba(12, 50, 65, 1)" stroke-width="1.5"></path><path d="M693.59 342.62L788.43 351.68" stroke="rgba(12, 50, 65, 1)" stroke-width="1.5"></path><path d="M693.59 342.62L854.57 212.37" stroke="rgba(12, 50, 65, 1)" stroke-width="1.5"></path><path d="M697.47 661.01L697.47 661.01" stroke="rgba(12, 50, 65, 1)" stroke-width="1.5"></path><path d="M697.47 661.01L858.42 684.49" stroke="rgba(12, 50, 65, 1)" stroke-width="1.5"></path><path d="M706.32 826.38L706.32 826.38" stroke="rgba(12, 50, 65, 1)" stroke-width="1.5"></path><path d="M706.32 826.38L843.97 837.27" stroke="rgba(12, 50, 65, 1)" stroke-width="1.5"></path><path d="M711.7 1012.21L711.7 1012.21" stroke="rgba(12, 50, 65, 1)" stroke-width="1.5"></path><path d="M711.7 1012.21L840.01 1009.11" stroke="rgba(12, 50, 65, 1)" stroke-width="1.5"></path><path d="M711.7 1012.21L706.32 826.38" stroke="rgba(12, 50, 65, 1)" stroke-width="1.5"></path><path d="M711.7 1012.21L511.15 1012" stroke="rgba(12, 50, 65, 1)" stroke-width="1.5"></path><path d="M711.7 1012.21L843.97 837.27" stroke="rgba(12, 50, 65, 1)" stroke-width="1.5"></path><path d="M854.57 212.37L854.57 212.37" stroke="rgba(12, 50, 65, 1)" stroke-width="1.5"></path><path d="M854.57 212.37L945.53 260.67" stroke="rgba(12, 50, 65, 1)" stroke-width="1.5"></path><path d="M788.43 351.68L788.43 351.68" stroke="rgba(12, 50, 65, 1)" stroke-width="1.5"></path><path d="M788.43 351.68L854.57 212.37" stroke="rgba(12, 50, 65, 1)" stroke-width="1.5"></path><path d="M788.43 351.68L847.86 514.05" stroke="rgba(12, 50, 65, 1)" stroke-width="1.5"></path><path d="M788.43 351.68L945.53 260.67" stroke="rgba(12, 50, 65, 1)" stroke-width="1.5"></path><path d="M788.43 351.68L988.33 385.8" stroke="rgba(12, 50, 65, 1)" stroke-width="1.5"></path><path d="M788.43 351.68L969.58 492.83" stroke="rgba(12, 50, 65, 1)" stroke-width="1.5"></path><path d="M847.86 514.05L847.86 514.05" stroke="rgba(12, 50, 65, 1)" stroke-width="1.5"></path><path d="M847.86 514.05L969.58 492.83" stroke="rgba(12, 50, 65, 1)" stroke-width="1.5"></path><path d="M847.86 514.05L858.42 684.49" stroke="rgba(12, 50, 65, 1)" stroke-width="1.5"></path><path d="M858.42 684.49L858.42 684.49" stroke="rgba(12, 50, 65, 1)" stroke-width="1.5"></path><path d="M858.42 684.49L1009.34 670.46" stroke="rgba(12, 50, 65, 1)" stroke-width="1.5"></path><path d="M858.42 684.49L843.97 837.27" stroke="rgba(12, 50, 65, 1)" stroke-width="1.5"></path><path d="M858.42 684.49L938.53 851.14" stroke="rgba(12, 50, 65, 1)" stroke-width="1.5"></path><path d="M858.42 684.49L706.32 826.38" stroke="rgba(12, 50, 65, 1)" stroke-width="1.5"></path><path d="M843.97 837.27L843.97 837.27" stroke="rgba(12, 50, 65, 1)" stroke-width="1.5"></path><path d="M843.97 837.27L938.53 851.14" stroke="rgba(12, 50, 65, 1)" stroke-width="1.5"></path><path d="M843.97 837.27L840.01 1009.11" stroke="rgba(12, 50, 65, 1)" stroke-width="1.5"></path><path d="M843.97 837.27L697.47 661.01" stroke="rgba(12, 50, 65, 1)" stroke-width="1.5"></path><path d="M840.01 1009.11L840.01 1009.11" stroke="rgba(12, 50, 65, 1)" stroke-width="1.5"></path><path d="M986.62 -62.67L986.62 -62.67" stroke="rgba(12, 50, 65, 1)" stroke-width="1.5"></path><path d="M986.62 -62.67L1008.08 39.93" stroke="rgba(12, 50, 65, 1)" stroke-width="1.5"></path><path d="M986.62 -62.67L1145.14 -48.73" stroke="rgba(12, 50, 65, 1)" stroke-width="1.5"></path><path d="M1008.08 39.93L1008.08 39.93" stroke="rgba(12, 50, 65, 1)" stroke-width="1.5"></path><path d="M1008.08 39.93L1128.67 55.29" stroke="rgba(12, 50, 65, 1)" stroke-width="1.5"></path><path d="M1008.08 39.93L1145.14 -48.73" stroke="rgba(12, 50, 65, 1)" stroke-width="1.5"></path><path d="M1008.08 39.93L1103.4 198.42" stroke="rgba(12, 50, 65, 1)" stroke-width="1.5"></path><path d="M1008.08 39.93L945.53 260.67" stroke="rgba(12, 50, 65, 1)" stroke-width="1.5"></path><path d="M945.53 260.67L945.53 260.67" stroke="rgba(12, 50, 65, 1)" stroke-width="1.5"></path><path d="M945.53 260.67L988.33 385.8" stroke="rgba(12, 50, 65, 1)" stroke-width="1.5"></path><path d="M945.53 260.67L1103.4 198.42" stroke="rgba(12, 50, 65, 1)" stroke-width="1.5"></path><path d="M988.33 385.8L988.33 385.8" stroke="rgba(12, 50, 65, 1)" stroke-width="1.5"></path><path d="M988.33 385.8L969.58 492.83" stroke="rgba(12, 50, 65, 1)" stroke-width="1.5"></path><path d="M988.33 385.8L1121.93 408.81" stroke="rgba(12, 50, 65, 1)" stroke-width="1.5"></path><path d="M969.58 492.83L969.58 492.83" stroke="rgba(12, 50, 65, 1)" stroke-width="1.5"></path><path d="M969.58 492.83L1136.57 529.72" stroke="rgba(12, 50, 65, 1)" stroke-width="1.5"></path><path d="M969.58 492.83L1121.93 408.81" stroke="rgba(12, 50, 65, 1)" stroke-width="1.5"></path><path d="M969.58 492.83L1009.34 670.46" stroke="rgba(12, 50, 65, 1)" stroke-width="1.5"></path><path d="M1009.34 670.46L1009.34 670.46" stroke="rgba(12, 50, 65, 1)" stroke-width="1.5"></path><path d="M1009.34 670.46L1159.44 668.32" stroke="rgba(12, 50, 65, 1)" stroke-width="1.5"></path><path d="M1009.34 670.46L1136.57 529.72" stroke="rgba(12, 50, 65, 1)" stroke-width="1.5"></path><path d="M938.53 851.14L938.53 851.14" stroke="rgba(12, 50, 65, 1)" stroke-width="1.5"></path><path d="M938.53 851.14L1108.06 837.11" stroke="rgba(12, 50, 65, 1)" stroke-width="1.5"></path><path d="M1145.14 -48.73L1145.14 -48.73" stroke="rgba(12, 50, 65, 1)" stroke-width="1.5"></path><path d="M1145.14 -48.73L1128.67 55.29" stroke="rgba(12, 50, 65, 1)" stroke-width="1.5"></path><path d="M1145.14 -48.73L1256.75 -37.87" stroke="rgba(12, 50, 65, 1)" stroke-width="1.5"></path><path d="M1145.14 -48.73L1267.45 44.15" stroke="rgba(12, 50, 65, 1)" stroke-width="1.5"></path><path d="M1128.67 55.29L1128.67 55.29" stroke="rgba(12, 50, 65, 1)" stroke-width="1.5"></path><path d="M1128.67 55.29L1267.45 44.15" stroke="rgba(12, 50, 65, 1)" stroke-width="1.5"></path><path d="M1103.4 198.42L1103.4 198.42" stroke="rgba(12, 50, 65, 1)" stroke-width="1.5"></path><path d="M1103.4 198.42L1128.67 55.29" stroke="rgba(12, 50, 65, 1)" stroke-width="1.5"></path><path d="M1103.4 198.42L1254.7 249.91" stroke="rgba(12, 50, 65, 1)" stroke-width="1.5"></path><path d="M1103.4 198.42L1121.93 408.81" stroke="rgba(12, 50, 65, 1)" stroke-width="1.5"></path><path d="M1103.4 198.42L988.33 385.8" stroke="rgba(12, 50, 65, 1)" stroke-width="1.5"></path><path d="M1121.93 408.81L1121.93 408.81" stroke="rgba(12, 50, 65, 1)" stroke-width="1.5"></path><path d="M1121.93 408.81L1136.57 529.72" stroke="rgba(12, 50, 65, 1)" stroke-width="1.5"></path><path d="M1121.93 408.81L1244.86 369.92" stroke="rgba(12, 50, 65, 1)" stroke-width="1.5"></path><path d="M1136.57 529.72L1136.57 529.72" stroke="rgba(12, 50, 65, 1)" stroke-width="1.5"></path><path d="M1136.57 529.72L1159.44 668.32" stroke="rgba(12, 50, 65, 1)" stroke-width="1.5"></path><path d="M1136.57 529.72L1279.59 528.99" stroke="rgba(12, 50, 65, 1)" stroke-width="1.5"></path><path d="M1159.44 668.32L1159.44 668.32" stroke="rgba(12, 50, 65, 1)" stroke-width="1.5"></path><path d="M1159.44 668.32L1295.97 648.11" stroke="rgba(12, 50, 65, 1)" stroke-width="1.5"></path><path d="M1159.44 668.32L1108.06 837.11" stroke="rgba(12, 50, 65, 1)" stroke-width="1.5"></path><path d="M1108.06 837.11L1108.06 837.11" stroke="rgba(12, 50, 65, 1)" stroke-width="1.5"></path><path d="M1108.06 837.11L1159.52 960.78" stroke="rgba(12, 50, 65, 1)" stroke-width="1.5"></path><path d="M1108.06 837.11L1271.56 861.42" stroke="rgba(12, 50, 65, 1)" stroke-width="1.5"></path><path d="M1159.52 960.78L1159.52 960.78" stroke="rgba(12, 50, 65, 1)" stroke-width="1.5"></path><path d="M1159.52 960.78L1271.56 861.42" stroke="rgba(12, 50, 65, 1)" stroke-width="1.5"></path><path d="M1159.52 960.78L1311.64 1004.21" stroke="rgba(12, 50, 65, 1)" stroke-width="1.5"></path><path d="M1159.52 960.78L938.53 851.14" stroke="rgba(12, 50, 65, 1)" stroke-width="1.5"></path><path d="M1159.52 960.78L1420.9 959.79" stroke="rgba(12, 50, 65, 1)" stroke-width="1.5"></path><path d="M1159.52 960.78L1159.44 668.32" stroke="rgba(12, 50, 65, 1)" stroke-width="1.5"></path><path d="M1256.75 -37.87L1256.75 -37.87" stroke="rgba(12, 50, 65, 1)" stroke-width="1.5"></path><path d="M1256.75 -37.87L1267.45 44.15" stroke="rgba(12, 50, 65, 1)" stroke-width="1.5"></path><path d="M1256.75 -37.87L1400.21 -104.42" stroke="rgba(12, 50, 65, 1)" stroke-width="1.5"></path><path d="M1256.75 -37.87L1128.67 55.29" stroke="rgba(12, 50, 65, 1)" stroke-width="1.5"></path><path d="M1267.45 44.15L1267.45 44.15" stroke="rgba(12, 50, 65, 1)" stroke-width="1.5"></path><path d="M1267.45 44.15L1417.88 74.94" stroke="rgba(12, 50, 65, 1)" stroke-width="1.5"></path><path d="M1267.45 44.15L1400.21 -104.42" stroke="rgba(12, 50, 65, 1)" stroke-width="1.5"></path><path d="M1267.45 44.15L1254.7 249.91" stroke="rgba(12, 50, 65, 1)" stroke-width="1.5"></path><path d="M1254.7 249.91L1254.7 249.91" stroke="rgba(12, 50, 65, 1)" stroke-width="1.5"></path><path d="M1254.7 249.91L1244.86 369.92" stroke="rgba(12, 50, 65, 1)" stroke-width="1.5"></path><path d="M1254.7 249.91L1426.57 236.16" stroke="rgba(12, 50, 65, 1)" stroke-width="1.5"></path><path d="M1244.86 369.92L1244.86 369.92" stroke="rgba(12, 50, 65, 1)" stroke-width="1.5"></path><path d="M1279.59 528.99L1279.59 528.99" stroke="rgba(12, 50, 65, 1)" stroke-width="1.5"></path><path d="M1279.59 528.99L1295.97 648.11" stroke="rgba(12, 50, 65, 1)" stroke-width="1.5"></path><path d="M1279.59 528.99L1402.88 507.88" stroke="rgba(12, 50, 65, 1)" stroke-width="1.5"></path><path d="M1279.59 528.99L1244.86 369.92" stroke="rgba(12, 50, 65, 1)" stroke-width="1.5"></path><path d="M1279.59 528.99L1159.44 668.32" stroke="rgba(12, 50, 65, 1)" stroke-width="1.5"></path><path d="M1279.59 528.99L1399.73 676.06" stroke="rgba(12, 50, 65, 1)" stroke-width="1.5"></path><path d="M1295.97 648.11L1295.97 648.11" stroke="rgba(12, 50, 65, 1)" stroke-width="1.5"></path><path d="M1295.97 648.11L1399.73 676.06" stroke="rgba(12, 50, 65, 1)" stroke-width="1.5"></path><path d="M1295.97 648.11L1402.88 507.88" stroke="rgba(12, 50, 65, 1)" stroke-width="1.5"></path><path d="M1271.56 861.42L1271.56 861.42" stroke="rgba(12, 50, 65, 1)" stroke-width="1.5"></path><path d="M1271.56 861.42L1311.64 1004.21" stroke="rgba(12, 50, 65, 1)" stroke-width="1.5"></path><path d="M1311.64 1004.21L1311.64 1004.21" stroke="rgba(12, 50, 65, 1)" stroke-width="1.5"></path><path d="M1311.64 1004.21L1420.9 959.79" stroke="rgba(12, 50, 65, 1)" stroke-width="1.5"></path><path d="M1311.64 1004.21L1558.6 956.17" stroke="rgba(12, 50, 65, 1)" stroke-width="1.5"></path><path d="M1400.21 -104.42L1400.21 -104.42" stroke="rgba(12, 50, 65, 1)" stroke-width="1.5"></path><path d="M1400.21 -104.42L1573.61 -59.26" stroke="rgba(12, 50, 65, 1)" stroke-width="1.5"></path><path d="M1400.21 -104.42L1417.88 74.94" stroke="rgba(12, 50, 65, 1)" stroke-width="1.5"></path><path d="M1400.21 -104.42L1552.1 40.39" stroke="rgba(12, 50, 65, 1)" stroke-width="1.5"></path><path d="M1417.88 74.94L1417.88 74.94" stroke="rgba(12, 50, 65, 1)" stroke-width="1.5"></path><path d="M1417.88 74.94L1552.1 40.39" stroke="rgba(12, 50, 65, 1)" stroke-width="1.5"></path><path d="M1417.88 74.94L1426.57 236.16" stroke="rgba(12, 50, 65, 1)" stroke-width="1.5"></path><path d="M1417.88 74.94L1560.21 209.75" stroke="rgba(12, 50, 65, 1)" stroke-width="1.5"></path><path d="M1417.88 74.94L1256.75 -37.87" stroke="rgba(12, 50, 65, 1)" stroke-width="1.5"></path><path d="M1426.57 236.16L1426.57 236.16" stroke="rgba(12, 50, 65, 1)" stroke-width="1.5"></path><path d="M1426.57 236.16L1560.21 209.75" stroke="rgba(12, 50, 65, 1)" stroke-width="1.5"></path><path d="M1426.57 236.16L1594.45 373.99" stroke="rgba(12, 50, 65, 1)" stroke-width="1.5"></path><path d="M1426.57 236.16L1244.86 369.92" stroke="rgba(12, 50, 65, 1)" stroke-width="1.5"></path><path d="M1426.57 236.16L1552.1 40.39" stroke="rgba(12, 50, 65, 1)" stroke-width="1.5"></path><path d="M1402.88 507.88L1402.88 507.88" stroke="rgba(12, 50, 65, 1)" stroke-width="1.5"></path><path d="M1402.88 507.88L1399.73 676.06" stroke="rgba(12, 50, 65, 1)" stroke-width="1.5"></path><path d="M1402.88 507.88L1568.3 547.07" stroke="rgba(12, 50, 65, 1)" stroke-width="1.5"></path><path d="M1402.88 507.88L1244.86 369.92" stroke="rgba(12, 50, 65, 1)" stroke-width="1.5"></path><path d="M1399.73 676.06L1399.73 676.06" stroke="rgba(12, 50, 65, 1)" stroke-width="1.5"></path><path d="M1420.9 959.79L1420.9 959.79" stroke="rgba(12, 50, 65, 1)" stroke-width="1.5"></path><path d="M1420.9 959.79L1558.6 956.17" stroke="rgba(12, 50, 65, 1)" stroke-width="1.5"></path><path d="M1420.9 959.79L1271.56 861.42" stroke="rgba(12, 50, 65, 1)" stroke-width="1.5"></path><path d="M1420.9 959.79L1597.2 850.46" stroke="rgba(12, 50, 65, 1)" stroke-width="1.5"></path><path d="M1573.61 -59.26L1573.61 -59.26" stroke="rgba(12, 50, 65, 1)" stroke-width="1.5"></path><path d="M1573.61 -59.26L1552.1 40.39" stroke="rgba(12, 50, 65, 1)" stroke-width="1.5"></path><path d="M1573.61 -59.26L1417.88 74.94" stroke="rgba(12, 50, 65, 1)" stroke-width="1.5"></path><path d="M1552.1 40.39L1552.1 40.39" stroke="rgba(12, 50, 65, 1)" stroke-width="1.5"></path><path d="M1560.21 209.75L1560.21 209.75" stroke="rgba(12, 50, 65, 1)" stroke-width="1.5"></path><path d="M1560.21 209.75L1594.45 373.99" stroke="rgba(12, 50, 65, 1)" stroke-width="1.5"></path><path d="M1560.21 209.75L1552.1 40.39" stroke="rgba(12, 50, 65, 1)" stroke-width="1.5"></path><path d="M1560.21 209.75L1573.61 -59.26" stroke="rgba(12, 50, 65, 1)" stroke-width="1.5"></path><path d="M1560.21 209.75L1254.7 249.91" stroke="rgba(12, 50, 65, 1)" stroke-width="1.5"></path><path d="M1594.45 373.99L1594.45 373.99" stroke="rgba(12, 50, 65, 1)" stroke-width="1.5"></path><path d="M1594.45 373.99L1568.3 547.07" stroke="rgba(12, 50, 65, 1)" stroke-width="1.5"></path><path d="M1594.45 373.99L1402.88 507.88" stroke="rgba(12, 50, 65, 1)" stroke-width="1.5"></path><path d="M1594.45 373.99L1591.14 643.78" stroke="rgba(12, 50, 65, 1)" stroke-width="1.5"></path><path d="M1594.45 373.99L1552.1 40.39" stroke="rgba(12, 50, 65, 1)" stroke-width="1.5"></path><path d="M1568.3 547.07L1568.3 547.07" stroke="rgba(12, 50, 65, 1)" stroke-width="1.5"></path><path d="M1568.3 547.07L1591.14 643.78" stroke="rgba(12, 50, 65, 1)" stroke-width="1.5"></path><path d="M1591.14 643.78L1591.14 643.78" stroke="rgba(12, 50, 65, 1)" stroke-width="1.5"></path><path d="M1591.14 643.78L1399.73 676.06" stroke="rgba(12, 50, 65, 1)" stroke-width="1.5"></path><path d="M1591.14 643.78L1597.2 850.46" stroke="rgba(12, 50, 65, 1)" stroke-width="1.5"></path><path d="M1597.2 850.46L1597.2 850.46" stroke="rgba(12, 50, 65, 1)" stroke-width="1.5"></path><path d="M1597.2 850.46L1558.6 956.17" stroke="rgba(12, 50, 65, 1)" stroke-width="1.5"></path><path d="M1597.2 850.46L1399.73 676.06" stroke="rgba(12, 50, 65, 1)" stroke-width="1.5"></path><path d="M1558.6 956.17L1558.6 956.17" stroke="rgba(12, 50, 65, 1)" stroke-width="1.5"></path><path d="M1558.6 956.17L1271.56 861.42" stroke="rgba(12, 50, 65, 1)" stroke-width="1.5"></path><circle r="5" cx="-68.19" cy="498.26" fill="rgba(12, 50, 65, 1)"></circle><circle r="5" cx="-62.89" cy="814.64" fill="rgba(12, 50, 65, 1)"></circle><circle r="5" cx="-77.74" cy="973.28" fill="rgba(12, 50, 65, 1)"></circle><circle r="5" cx="107.55" cy="532.66" fill="rgba(12, 50, 65, 1)"></circle><circle r="5" cx="89.48" cy="961.31" fill="rgba(12, 50, 65, 1)"></circle><circle r="5" cx="198.81" cy="509.19" fill="rgba(12, 50, 65, 1)"></circle><circle r="5" cx="221.72" cy="799.11" fill="rgba(12, 50, 65, 1)"></circle><circle r="5" cx="256.27" cy="980.85" fill="rgba(12, 50, 65, 1)"></circle><circle r="5" cx="344.93" cy="672.13" fill="rgba(12, 50, 65, 1)"></circle><circle r="5" cx="405.67" cy="814.96" fill="rgba(12, 50, 65, 1)"></circle><circle r="5" cx="396.92" cy="954.53" fill="rgba(12, 50, 65, 1)"></circle><circle r="5" cx="503.57" cy="543.17" fill="rgba(12, 50, 65, 1)"></circle><circle r="5" cx="532.96" cy="653.55" fill="rgba(12, 50, 65, 1)"></circle><circle r="5" cx="553.76" cy="813.18" fill="rgba(12, 50, 65, 1)"></circle><circle r="5" cx="511.15" cy="1012" fill="rgba(12, 50, 65, 1)"></circle><circle r="5" cx="693.59" cy="342.62" fill="rgba(12, 50, 65, 1)"></circle><circle r="5" cx="697.47" cy="661.01" fill="rgba(12, 50, 65, 1)"></circle><circle r="5" cx="706.32" cy="826.38" fill="rgba(12, 50, 65, 1)"></circle><circle r="5" cx="711.7" cy="1012.21" fill="rgba(12, 50, 65, 1)"></circle><circle r="5" cx="854.57" cy="212.37" fill="rgba(12, 50, 65, 1)"></circle><circle r="5" cx="788.43" cy="351.68" fill="rgba(12, 50, 65, 1)"></circle><circle r="5" cx="847.86" cy="514.05" fill="rgba(12, 50, 65, 1)"></circle><circle r="5" cx="858.42" cy="684.49" fill="rgba(12, 50, 65, 1)"></circle><circle r="5" cx="843.97" cy="837.27" fill="rgba(12, 50, 65, 1)"></circle><circle r="5" cx="840.01" cy="1009.11" fill="rgba(12, 50, 65, 1)"></circle><circle r="5" cx="986.62" cy="-62.67" fill="rgba(12, 50, 65, 1)"></circle><circle r="5" cx="1008.08" cy="39.93" fill="rgba(12, 50, 65, 1)"></circle><circle r="5" cx="945.53" cy="260.67" fill="rgba(12, 50, 65, 1)"></circle><circle r="5" cx="988.33" cy="385.8" fill="rgba(12, 50, 65, 1)"></circle><circle r="5" cx="969.58" cy="492.83" fill="rgba(12, 50, 65, 1)"></circle><circle r="5" cx="1009.34" cy="670.46" fill="rgba(12, 50, 65, 1)"></circle><circle r="5" cx="938.53" cy="851.14" fill="rgba(12, 50, 65, 1)"></circle><circle r="5" cx="1145.14" cy="-48.73" fill="rgba(12, 50, 65, 1)"></circle><circle r="5" cx="1128.67" cy="55.29" fill="rgba(12, 50, 65, 1)"></circle><circle r="5" cx="1103.4" cy="198.42" fill="rgba(12, 50, 65, 1)"></circle><circle r="5" cx="1121.93" cy="408.81" fill="rgba(12, 50, 65, 1)"></circle><circle r="5" cx="1136.57" cy="529.72" fill="rgba(12, 50, 65, 1)"></circle><circle r="5" cx="1159.44" cy="668.32" fill="rgba(12, 50, 65, 1)"></circle><circle r="5" cx="1108.06" cy="837.11" fill="rgba(12, 50, 65, 1)"></circle><circle r="5" cx="1159.52" cy="960.78" fill="rgba(12, 50, 65, 1)"></circle><circle r="5" cx="1256.75" cy="-37.87" fill="rgba(12, 50, 65, 1)"></circle><circle r="5" cx="1267.45" cy="44.15" fill="rgba(12, 50, 65, 1)"></circle><circle r="5" cx="1254.7" cy="249.91" fill="rgba(12, 50, 65, 1)"></circle><circle r="5" cx="1244.86" cy="369.92" fill="rgba(12, 50, 65, 1)"></circle><circle r="5" cx="1279.59" cy="528.99" fill="rgba(12, 50, 65, 1)"></circle><circle r="5" cx="1295.97" cy="648.11" fill="rgba(12, 50, 65, 1)"></circle><circle r="5" cx="1271.56" cy="861.42" fill="rgba(12, 50, 65, 1)"></circle><circle r="5" cx="1311.64" cy="1004.21" fill="rgba(12, 50, 65, 1)"></circle><circle r="5" cx="1400.21" cy="-104.42" fill="rgba(12, 50, 65, 1)"></circle><circle r="5" cx="1417.88" cy="74.94" fill="rgba(12, 50, 65, 1)"></circle><circle r="5" cx="1426.57" cy="236.16" fill="rgba(12, 50, 65, 1)"></circle><circle r="5" cx="1402.88" cy="507.88" fill="rgba(12, 50, 65, 1)"></circle><circle r="5" cx="1399.73" cy="676.06" fill="rgba(12, 50, 65, 1)"></circle><circle r="5" cx="1420.9" cy="959.79" fill="rgba(12, 50, 65, 1)"></circle><circle r="5" cx="1573.61" cy="-59.26" fill="rgba(12, 50, 65, 1)"></circle><circle r="5" cx="1552.1" cy="40.39" fill="rgba(12, 50, 65, 1)"></circle><circle r="5" cx="1560.21" cy="209.75" fill="rgba(12, 50, 65, 1)"></circle><circle r="5" cx="1594.45" cy="373.99" fill="rgba(12, 50, 65, 1)"></circle><circle r="5" cx="1568.3" cy="547.07" fill="rgba(12, 50, 65, 1)"></circle><circle r="5" cx="1591.14" cy="643.78" fill="rgba(12, 50, 65, 1)"></circle><circle r="5" cx="1597.2" cy="850.46" fill="rgba(12, 50, 65, 1)"></circle><circle r="5" cx="1558.6" cy="956.17" fill="rgba(12, 50, 65, 1)"></circle><path d="M975.25 657.22L975.25 657.22" stroke="hsl(197.10000000000002, 68.7%, 45.6%)" stroke-width="1.5"></path><path d="M975.25 657.22L857.11 639.58" stroke="hsl(197.10000000000002, 68.7%, 45.6%)" stroke-width="1.5"></path><path d="M975.25 657.22L975.21 801.13" stroke="hsl(197.10000000000002, 68.7%, 45.6%)" stroke-width="1.5"></path><path d="M975.25 657.22L1120.39 656.77" stroke="hsl(197.10000000000002, 68.7%, 45.6%)" stroke-width="1.5"></path><path d="M975.25 657.22L834.72 789.9" stroke="hsl(197.10000000000002, 68.7%, 45.6%)" stroke-width="1.5"></path><path d="M975.25 657.22L1123.86 526.67" stroke="hsl(197.10000000000002, 68.7%, 45.6%)" stroke-width="1.5"></path><path d="M975.25 657.22L811.13 545.77" stroke="hsl(197.10000000000002, 68.7%, 45.6%)" stroke-width="1.5"></path><path d="M975.21 801.13L975.21 801.13" stroke="hsl(197.10000000000002, 68.7%, 45.6%)" stroke-width="1.5"></path><path d="M975.21 801.13L834.72 789.9" stroke="hsl(197.10000000000002, 68.7%, 45.6%)" stroke-width="1.5"></path><path d="M975.21 801.13L959.39 946.18" stroke="hsl(197.10000000000002, 68.7%, 45.6%)" stroke-width="1.5"></path><path d="M975.21 801.13L1147.88 818.91" stroke="hsl(197.10000000000002, 68.7%, 45.6%)" stroke-width="1.5"></path><path d="M975.21 801.13L857.11 639.58" stroke="hsl(197.10000000000002, 68.7%, 45.6%)" stroke-width="1.5"></path><path d="M959.39 946.18L959.39 946.18" stroke="hsl(197.10000000000002, 68.7%, 45.6%)" stroke-width="1.5"></path><path d="M959.39 946.18L840.5 992.06" stroke="hsl(197.10000000000002, 68.7%, 45.6%)" stroke-width="1.5"></path><path d="M959.39 946.18L1110.88 1006.12" stroke="hsl(197.10000000000002, 68.7%, 45.6%)" stroke-width="1.5"></path><path d="M959.39 946.18L834.72 789.9" stroke="hsl(197.10000000000002, 68.7%, 45.6%)" stroke-width="1.5"></path><path d="M959.39 946.18L1147.88 818.91" stroke="hsl(197.10000000000002, 68.7%, 45.6%)" stroke-width="1.5"></path><path d="M959.39 946.18L975.25 657.22" stroke="hsl(197.10000000000002, 68.7%, 45.6%)" stroke-width="1.5"></path><path d="M1123.86 526.67L1123.86 526.67" stroke="hsl(197.10000000000002, 68.7%, 45.6%)" stroke-width="1.5"></path><path d="M1123.86 526.67L1120.39 656.77" stroke="hsl(197.10000000000002, 68.7%, 45.6%)" stroke-width="1.5"></path><path d="M1123.86 526.67L1253.61 542.25" stroke="hsl(197.10000000000002, 68.7%, 45.6%)" stroke-width="1.5"></path><path d="M1123.86 526.67L1120.08 346.12" stroke="hsl(197.10000000000002, 68.7%, 45.6%)" stroke-width="1.5"></path><path d="M1123.86 526.67L1282.86 698.96" stroke="hsl(197.10000000000002, 68.7%, 45.6%)" stroke-width="1.5"></path><path d="M1123.86 526.67L1302.79 357.83" stroke="hsl(197.10000000000002, 68.7%, 45.6%)" stroke-width="1.5"></path><path d="M1240.54 48.82L1240.54 48.82" stroke="hsl(197.10000000000002, 68.7%, 45.6%)" stroke-width="1.5"></path><path d="M1240.54 48.82L1257.88 -40.32" stroke="hsl(197.10000000000002, 68.7%, 45.6%)" stroke-width="1.5"></path><path d="M1240.54 48.82L1288.84 215.39" stroke="hsl(197.10000000000002, 68.7%, 45.6%)" stroke-width="1.5"></path><path d="M1288.84 215.39L1288.84 215.39" stroke="hsl(197.10000000000002, 68.7%, 45.6%)" stroke-width="1.5"></path><path d="M1288.84 215.39L1418.11 262.38" stroke="hsl(197.10000000000002, 68.7%, 45.6%)" stroke-width="1.5"></path><path d="M1288.84 215.39L1302.79 357.83" stroke="hsl(197.10000000000002, 68.7%, 45.6%)" stroke-width="1.5"></path><path d="M1288.84 215.39L1092.27 238.74" stroke="hsl(197.10000000000002, 68.7%, 45.6%)" stroke-width="1.5"></path><path d="M1288.84 215.39L1451.41 337.54" stroke="hsl(197.10000000000002, 68.7%, 45.6%)" stroke-width="1.5"></path><path d="M1296.08 959.24L1296.08 959.24" stroke="hsl(197.10000000000002, 68.7%, 45.6%)" stroke-width="1.5"></path><path d="M1296.08 959.24L1278.51 805.22" stroke="hsl(197.10000000000002, 68.7%, 45.6%)" stroke-width="1.5"></path><path d="M1296.08 959.24L1453.72 1006.8" stroke="hsl(197.10000000000002, 68.7%, 45.6%)" stroke-width="1.5"></path><path d="M1296.08 959.24L1429.66 848.35" stroke="hsl(197.10000000000002, 68.7%, 45.6%)" stroke-width="1.5"></path><path d="M1296.08 959.24L1110.88 1006.12" stroke="hsl(197.10000000000002, 68.7%, 45.6%)" stroke-width="1.5"></path><path d="M1296.08 959.24L1147.88 818.91" stroke="hsl(197.10000000000002, 68.7%, 45.6%)" stroke-width="1.5"></path><path d="M1296.08 959.24L1282.86 698.96" stroke="hsl(197.10000000000002, 68.7%, 45.6%)" stroke-width="1.5"></path><path d="M1446.05 490.93L1446.05 490.93" stroke="hsl(197.10000000000002, 68.7%, 45.6%)" stroke-width="1.5"></path><path d="M1446.05 490.93L1590.85 508.49" stroke="hsl(197.10000000000002, 68.7%, 45.6%)" stroke-width="1.5"></path><path d="M1446.05 490.93L1451.41 337.54" stroke="hsl(197.10000000000002, 68.7%, 45.6%)" stroke-width="1.5"></path><path d="M-39.66 705.4L-39.66 705.4" stroke="hsl(197.10000000000002, 68.7%, 45.6%)" stroke-width="1.5"></path><path d="M-39.66 705.4L-59.82 824.48" stroke="hsl(197.10000000000002, 68.7%, 45.6%)" stroke-width="1.5"></path><path d="M-39.66 705.4L96.32 706.72" stroke="hsl(197.10000000000002, 68.7%, 45.6%)" stroke-width="1.5"></path><path d="M-59.82 824.48L-59.82 824.48" stroke="hsl(197.10000000000002, 68.7%, 45.6%)" stroke-width="1.5"></path><path d="M-59.82 824.48L-50.03 975.24" stroke="hsl(197.10000000000002, 68.7%, 45.6%)" stroke-width="1.5"></path><path d="M-59.82 824.48L96.32 706.72" stroke="hsl(197.10000000000002, 68.7%, 45.6%)" stroke-width="1.5"></path><path d="M-59.82 824.48L109.03 999.65" stroke="hsl(197.10000000000002, 68.7%, 45.6%)" stroke-width="1.5"></path><path d="M-50.03 975.24L-50.03 975.24" stroke="hsl(197.10000000000002, 68.7%, 45.6%)" stroke-width="1.5"></path><path d="M-50.03 975.24L109.03 999.65" stroke="hsl(197.10000000000002, 68.7%, 45.6%)" stroke-width="1.5"></path><path d="M-50.03 975.24L187.53 998.92" stroke="hsl(197.10000000000002, 68.7%, 45.6%)" stroke-width="1.5"></path><path d="M-50.03 975.24L-39.66 705.4" stroke="hsl(197.10000000000002, 68.7%, 45.6%)" stroke-width="1.5"></path><path d="M-50.03 975.24L96.32 706.72" stroke="hsl(197.10000000000002, 68.7%, 45.6%)" stroke-width="1.5"></path><path d="M96.32 706.72L96.32 706.72" stroke="hsl(197.10000000000002, 68.7%, 45.6%)" stroke-width="1.5"></path><path d="M96.32 706.72L215.66 644.64" stroke="hsl(197.10000000000002, 68.7%, 45.6%)" stroke-width="1.5"></path><path d="M96.32 706.72L229.38 788.98" stroke="hsl(197.10000000000002, 68.7%, 45.6%)" stroke-width="1.5"></path><path d="M96.32 706.72L358.53 668.19" stroke="hsl(197.10000000000002, 68.7%, 45.6%)" stroke-width="1.5"></path><path d="M96.32 706.72L109.03 999.65" stroke="hsl(197.10000000000002, 68.7%, 45.6%)" stroke-width="1.5"></path><path d="M109.03 999.65L109.03 999.65" stroke="hsl(197.10000000000002, 68.7%, 45.6%)" stroke-width="1.5"></path><path d="M109.03 999.65L187.53 998.92" stroke="hsl(197.10000000000002, 68.7%, 45.6%)" stroke-width="1.5"></path><path d="M109.03 999.65L229.38 788.98" stroke="hsl(197.10000000000002, 68.7%, 45.6%)" stroke-width="1.5"></path><path d="M109.03 999.65L387.87 832.09" stroke="hsl(197.10000000000002, 68.7%, 45.6%)" stroke-width="1.5"></path><path d="M215.66 644.64L215.66 644.64" stroke="hsl(197.10000000000002, 68.7%, 45.6%)" stroke-width="1.5"></path><path d="M215.66 644.64L358.53 668.19" stroke="hsl(197.10000000000002, 68.7%, 45.6%)" stroke-width="1.5"></path><path d="M215.66 644.64L229.38 788.98" stroke="hsl(197.10000000000002, 68.7%, 45.6%)" stroke-width="1.5"></path><path d="M215.66 644.64L387.87 832.09" stroke="hsl(197.10000000000002, 68.7%, 45.6%)" stroke-width="1.5"></path><path d="M215.66 644.64L-39.66 705.4" stroke="hsl(197.10000000000002, 68.7%, 45.6%)" stroke-width="1.5"></path><path d="M215.66 644.64L-59.82 824.48" stroke="hsl(197.10000000000002, 68.7%, 45.6%)" stroke-width="1.5"></path><path d="M229.38 788.98L229.38 788.98" stroke="hsl(197.10000000000002, 68.7%, 45.6%)" stroke-width="1.5"></path><path d="M229.38 788.98L387.87 832.09" stroke="hsl(197.10000000000002, 68.7%, 45.6%)" stroke-width="1.5"></path><path d="M229.38 788.98L358.53 668.19" stroke="hsl(197.10000000000002, 68.7%, 45.6%)" stroke-width="1.5"></path><path d="M229.38 788.98L187.53 998.92" stroke="hsl(197.10000000000002, 68.7%, 45.6%)" stroke-width="1.5"></path><path d="M187.53 998.92L187.53 998.92" stroke="hsl(197.10000000000002, 68.7%, 45.6%)" stroke-width="1.5"></path><path d="M358.53 668.19L358.53 668.19" stroke="hsl(197.10000000000002, 68.7%, 45.6%)" stroke-width="1.5"></path><path d="M358.53 668.19L387.87 832.09" stroke="hsl(197.10000000000002, 68.7%, 45.6%)" stroke-width="1.5"></path><path d="M358.53 668.19L541.75 824.23" stroke="hsl(197.10000000000002, 68.7%, 45.6%)" stroke-width="1.5"></path><path d="M387.87 832.09L387.87 832.09" stroke="hsl(197.10000000000002, 68.7%, 45.6%)" stroke-width="1.5"></path><path d="M387.87 832.09L541.75 824.23" stroke="hsl(197.10000000000002, 68.7%, 45.6%)" stroke-width="1.5"></path><path d="M541.75 824.23L541.75 824.23" stroke="hsl(197.10000000000002, 68.7%, 45.6%)" stroke-width="1.5"></path><path d="M541.75 824.23L686.04 830.07" stroke="hsl(197.10000000000002, 68.7%, 45.6%)" stroke-width="1.5"></path><path d="M541.75 824.23L658.64 704.47" stroke="hsl(197.10000000000002, 68.7%, 45.6%)" stroke-width="1.5"></path><path d="M561.62 1000.05L561.62 1000.05" stroke="hsl(197.10000000000002, 68.7%, 45.6%)" stroke-width="1.5"></path><path d="M561.62 1000.05L669.03 1007.03" stroke="hsl(197.10000000000002, 68.7%, 45.6%)" stroke-width="1.5"></path><path d="M561.62 1000.05L541.75 824.23" stroke="hsl(197.10000000000002, 68.7%, 45.6%)" stroke-width="1.5"></path><path d="M561.62 1000.05L686.04 830.07" stroke="hsl(197.10000000000002, 68.7%, 45.6%)" stroke-width="1.5"></path><path d="M658.64 704.47L658.64 704.47" stroke="hsl(197.10000000000002, 68.7%, 45.6%)" stroke-width="1.5"></path><path d="M658.64 704.47L686.04 830.07" stroke="hsl(197.10000000000002, 68.7%, 45.6%)" stroke-width="1.5"></path><path d="M658.64 704.47L834.72 789.9" stroke="hsl(197.10000000000002, 68.7%, 45.6%)" stroke-width="1.5"></path><path d="M658.64 704.47L857.11 639.58" stroke="hsl(197.10000000000002, 68.7%, 45.6%)" stroke-width="1.5"></path><path d="M686.04 830.07L686.04 830.07" stroke="hsl(197.10000000000002, 68.7%, 45.6%)" stroke-width="1.5"></path><path d="M686.04 830.07L834.72 789.9" stroke="hsl(197.10000000000002, 68.7%, 45.6%)" stroke-width="1.5"></path><path d="M686.04 830.07L669.03 1007.03" stroke="hsl(197.10000000000002, 68.7%, 45.6%)" stroke-width="1.5"></path><path d="M686.04 830.07L840.5 992.06" stroke="hsl(197.10000000000002, 68.7%, 45.6%)" stroke-width="1.5"></path><path d="M669.03 1007.03L669.03 1007.03" stroke="hsl(197.10000000000002, 68.7%, 45.6%)" stroke-width="1.5"></path><path d="M669.03 1007.03L840.5 992.06" stroke="hsl(197.10000000000002, 68.7%, 45.6%)" stroke-width="1.5"></path><path d="M811.13 545.77L811.13 545.77" stroke="hsl(197.10000000000002, 68.7%, 45.6%)" stroke-width="1.5"></path><path d="M811.13 545.77L857.11 639.58" stroke="hsl(197.10000000000002, 68.7%, 45.6%)" stroke-width="1.5"></path><path d="M811.13 545.77L658.64 704.47" stroke="hsl(197.10000000000002, 68.7%, 45.6%)" stroke-width="1.5"></path><path d="M811.13 545.77L834.72 789.9" stroke="hsl(197.10000000000002, 68.7%, 45.6%)" stroke-width="1.5"></path><path d="M811.13 545.77L975.21 801.13" stroke="hsl(197.10000000000002, 68.7%, 45.6%)" stroke-width="1.5"></path><path d="M857.11 639.58L857.11 639.58" stroke="hsl(197.10000000000002, 68.7%, 45.6%)" stroke-width="1.5"></path><path d="M834.72 789.9L834.72 789.9" stroke="hsl(197.10000000000002, 68.7%, 45.6%)" stroke-width="1.5"></path><path d="M834.72 789.9L857.11 639.58" stroke="hsl(197.10000000000002, 68.7%, 45.6%)" stroke-width="1.5"></path><path d="M840.5 992.06L840.5 992.06" stroke="hsl(197.10000000000002, 68.7%, 45.6%)" stroke-width="1.5"></path><path d="M840.5 992.06L834.72 789.9" stroke="hsl(197.10000000000002, 68.7%, 45.6%)" stroke-width="1.5"></path><path d="M1092.27 238.74L1092.27 238.74" stroke="hsl(197.10000000000002, 68.7%, 45.6%)" stroke-width="1.5"></path><path d="M1092.27 238.74L1120.08 346.12" stroke="hsl(197.10000000000002, 68.7%, 45.6%)" stroke-width="1.5"></path><path d="M1120.08 346.12L1120.08 346.12" stroke="hsl(197.10000000000002, 68.7%, 45.6%)" stroke-width="1.5"></path><path d="M1120.08 346.12L1302.79 357.83" stroke="hsl(197.10000000000002, 68.7%, 45.6%)" stroke-width="1.5"></path><path d="M1120.39 656.77L1120.39 656.77" stroke="hsl(197.10000000000002, 68.7%, 45.6%)" stroke-width="1.5"></path><path d="M1147.88 818.91L1147.88 818.91" stroke="hsl(197.10000000000002, 68.7%, 45.6%)" stroke-width="1.5"></path><path d="M1147.88 818.91L1278.51 805.22" stroke="hsl(197.10000000000002, 68.7%, 45.6%)" stroke-width="1.5"></path><path d="M1147.88 818.91L1120.39 656.77" stroke="hsl(197.10000000000002, 68.7%, 45.6%)" stroke-width="1.5"></path><path d="M1110.88 1006.12L1110.88 1006.12" stroke="hsl(197.10000000000002, 68.7%, 45.6%)" stroke-width="1.5"></path><path d="M1110.88 1006.12L1147.88 818.91" stroke="hsl(197.10000000000002, 68.7%, 45.6%)" stroke-width="1.5"></path><path d="M1110.88 1006.12L975.21 801.13" stroke="hsl(197.10000000000002, 68.7%, 45.6%)" stroke-width="1.5"></path><path d="M1257.88 -40.32L1257.88 -40.32" stroke="hsl(197.10000000000002, 68.7%, 45.6%)" stroke-width="1.5"></path><path d="M1257.88 -40.32L1444.95 -50.8" stroke="hsl(197.10000000000002, 68.7%, 45.6%)" stroke-width="1.5"></path><path d="M1302.79 357.83L1302.79 357.83" stroke="hsl(197.10000000000002, 68.7%, 45.6%)" stroke-width="1.5"></path><path d="M1302.79 357.83L1418.11 262.38" stroke="hsl(197.10000000000002, 68.7%, 45.6%)" stroke-width="1.5"></path><path d="M1302.79 357.83L1451.41 337.54" stroke="hsl(197.10000000000002, 68.7%, 45.6%)" stroke-width="1.5"></path><path d="M1253.61 542.25L1253.61 542.25" stroke="hsl(197.10000000000002, 68.7%, 45.6%)" stroke-width="1.5"></path><path d="M1253.61 542.25L1282.86 698.96" stroke="hsl(197.10000000000002, 68.7%, 45.6%)" stroke-width="1.5"></path><path d="M1282.86 698.96L1282.86 698.96" stroke="hsl(197.10000000000002, 68.7%, 45.6%)" stroke-width="1.5"></path><path d="M1282.86 698.96L1278.51 805.22" stroke="hsl(197.10000000000002, 68.7%, 45.6%)" stroke-width="1.5"></path><path d="M1282.86 698.96L1429.04 694.85" stroke="hsl(197.10000000000002, 68.7%, 45.6%)" stroke-width="1.5"></path><path d="M1282.86 698.96L1120.39 656.77" stroke="hsl(197.10000000000002, 68.7%, 45.6%)" stroke-width="1.5"></path><path d="M1278.51 805.22L1278.51 805.22" stroke="hsl(197.10000000000002, 68.7%, 45.6%)" stroke-width="1.5"></path><path d="M1444.95 -50.8L1444.95 -50.8" stroke="hsl(197.10000000000002, 68.7%, 45.6%)" stroke-width="1.5"></path><path d="M1444.95 -50.8L1439.53 73.06" stroke="hsl(197.10000000000002, 68.7%, 45.6%)" stroke-width="1.5"></path><path d="M1444.95 -50.8L1595.69 -53.34" stroke="hsl(197.10000000000002, 68.7%, 45.6%)" stroke-width="1.5"></path><path d="M1444.95 -50.8L1567.62 98.72" stroke="hsl(197.10000000000002, 68.7%, 45.6%)" stroke-width="1.5"></path><path d="M1444.95 -50.8L1240.54 48.82" stroke="hsl(197.10000000000002, 68.7%, 45.6%)" stroke-width="1.5"></path><path d="M1439.53 73.06L1439.53 73.06" stroke="hsl(197.10000000000002, 68.7%, 45.6%)" stroke-width="1.5"></path><path d="M1439.53 73.06L1567.62 98.72" stroke="hsl(197.10000000000002, 68.7%, 45.6%)" stroke-width="1.5"></path><path d="M1439.53 73.06L1547.79 219.57" stroke="hsl(197.10000000000002, 68.7%, 45.6%)" stroke-width="1.5"></path><path d="M1418.11 262.38L1418.11 262.38" stroke="hsl(197.10000000000002, 68.7%, 45.6%)" stroke-width="1.5"></path><path d="M1418.11 262.38L1451.41 337.54" stroke="hsl(197.10000000000002, 68.7%, 45.6%)" stroke-width="1.5"></path><path d="M1418.11 262.38L1547.79 219.57" stroke="hsl(197.10000000000002, 68.7%, 45.6%)" stroke-width="1.5"></path><path d="M1451.41 337.54L1451.41 337.54" stroke="hsl(197.10000000000002, 68.7%, 45.6%)" stroke-width="1.5"></path><path d="M1451.41 337.54L1576.94 365.04" stroke="hsl(197.10000000000002, 68.7%, 45.6%)" stroke-width="1.5"></path><path d="M1451.41 337.54L1547.79 219.57" stroke="hsl(197.10000000000002, 68.7%, 45.6%)" stroke-width="1.5"></path><path d="M1429.04 694.85L1429.04 694.85" stroke="hsl(197.10000000000002, 68.7%, 45.6%)" stroke-width="1.5"></path><path d="M1429.04 694.85L1560.56 656.33" stroke="hsl(197.10000000000002, 68.7%, 45.6%)" stroke-width="1.5"></path><path d="M1429.04 694.85L1429.66 848.35" stroke="hsl(197.10000000000002, 68.7%, 45.6%)" stroke-width="1.5"></path><path d="M1429.04 694.85L1278.51 805.22" stroke="hsl(197.10000000000002, 68.7%, 45.6%)" stroke-width="1.5"></path><path d="M1429.04 694.85L1446.05 490.93" stroke="hsl(197.10000000000002, 68.7%, 45.6%)" stroke-width="1.5"></path><path d="M1429.66 848.35L1429.66 848.35" stroke="hsl(197.10000000000002, 68.7%, 45.6%)" stroke-width="1.5"></path><path d="M1453.72 1006.8L1453.72 1006.8" stroke="hsl(197.10000000000002, 68.7%, 45.6%)" stroke-width="1.5"></path><path d="M1453.72 1006.8L1429.66 848.35" stroke="hsl(197.10000000000002, 68.7%, 45.6%)" stroke-width="1.5"></path><path d="M1453.72 1006.8L1606.33 949.7" stroke="hsl(197.10000000000002, 68.7%, 45.6%)" stroke-width="1.5"></path><path d="M1453.72 1006.8L1588.3 844.18" stroke="hsl(197.10000000000002, 68.7%, 45.6%)" stroke-width="1.5"></path><path d="M1453.72 1006.8L1278.51 805.22" stroke="hsl(197.10000000000002, 68.7%, 45.6%)" stroke-width="1.5"></path><path d="M1453.72 1006.8L1429.04 694.85" stroke="hsl(197.10000000000002, 68.7%, 45.6%)" stroke-width="1.5"></path><path d="M1595.69 -53.34L1595.69 -53.34" stroke="hsl(197.10000000000002, 68.7%, 45.6%)" stroke-width="1.5"></path><path d="M1595.69 -53.34L1567.62 98.72" stroke="hsl(197.10000000000002, 68.7%, 45.6%)" stroke-width="1.5"></path><path d="M1567.62 98.72L1567.62 98.72" stroke="hsl(197.10000000000002, 68.7%, 45.6%)" stroke-width="1.5"></path><path d="M1567.62 98.72L1547.79 219.57" stroke="hsl(197.10000000000002, 68.7%, 45.6%)" stroke-width="1.5"></path><path d="M1547.79 219.57L1547.79 219.57" stroke="hsl(197.10000000000002, 68.7%, 45.6%)" stroke-width="1.5"></path><path d="M1547.79 219.57L1576.94 365.04" stroke="hsl(197.10000000000002, 68.7%, 45.6%)" stroke-width="1.5"></path><path d="M1576.94 365.04L1576.94 365.04" stroke="hsl(197.10000000000002, 68.7%, 45.6%)" stroke-width="1.5"></path><path d="M1576.94 365.04L1590.85 508.49" stroke="hsl(197.10000000000002, 68.7%, 45.6%)" stroke-width="1.5"></path><path d="M1576.94 365.04L1446.05 490.93" stroke="hsl(197.10000000000002, 68.7%, 45.6%)" stroke-width="1.5"></path><path d="M1576.94 365.04L1418.11 262.38" stroke="hsl(197.10000000000002, 68.7%, 45.6%)" stroke-width="1.5"></path><path d="M1590.85 508.49L1590.85 508.49" stroke="hsl(197.10000000000002, 68.7%, 45.6%)" stroke-width="1.5"></path><path d="M1590.85 508.49L1560.56 656.33" stroke="hsl(197.10000000000002, 68.7%, 45.6%)" stroke-width="1.5"></path><path d="M1590.85 508.49L1451.41 337.54" stroke="hsl(197.10000000000002, 68.7%, 45.6%)" stroke-width="1.5"></path><path d="M1590.85 508.49L1429.04 694.85" stroke="hsl(197.10000000000002, 68.7%, 45.6%)" stroke-width="1.5"></path><path d="M1590.85 508.49L1547.79 219.57" stroke="hsl(197.10000000000002, 68.7%, 45.6%)" stroke-width="1.5"></path><path d="M1560.56 656.33L1560.56 656.33" stroke="hsl(197.10000000000002, 68.7%, 45.6%)" stroke-width="1.5"></path><path d="M1560.56 656.33L1588.3 844.18" stroke="hsl(197.10000000000002, 68.7%, 45.6%)" stroke-width="1.5"></path><path d="M1588.3 844.18L1588.3 844.18" stroke="hsl(197.10000000000002, 68.7%, 45.6%)" stroke-width="1.5"></path><path d="M1588.3 844.18L1606.33 949.7" stroke="hsl(197.10000000000002, 68.7%, 45.6%)" stroke-width="1.5"></path><path d="M1588.3 844.18L1429.66 848.35" stroke="hsl(197.10000000000002, 68.7%, 45.6%)" stroke-width="1.5"></path><path d="M1606.33 949.7L1606.33 949.7" stroke="hsl(197.10000000000002, 68.7%, 45.6%)" stroke-width="1.5"></path><path d="M1606.33 949.7L1429.66 848.35" stroke="hsl(197.10000000000002, 68.7%, 45.6%)" stroke-width="1.5"></path><path d="M1606.33 949.7L1560.56 656.33" stroke="hsl(197.10000000000002, 68.7%, 45.6%)" stroke-width="1.5"></path><path d="M1606.33 949.7L1296.08 959.24" stroke="hsl(197.10000000000002, 68.7%, 45.6%)" stroke-width="1.5"></path><path d="M1606.33 949.7L1429.04 694.85" stroke="hsl(197.10000000000002, 68.7%, 45.6%)" stroke-width="1.5"></path><circle r="25" cx="975.25" cy="657.22" fill="url(&quot;#SvgjsRadialGradient1017&quot;)"></circle><circle r="25" cx="975.21" cy="801.13" fill="url(&quot;#SvgjsRadialGradient1017&quot;)"></circle><circle r="25" cx="959.39" cy="946.18" fill="url(&quot;#SvgjsRadialGradient1017&quot;)"></circle><circle r="25" cx="1123.86" cy="526.67" fill="url(&quot;#SvgjsRadialGradient1017&quot;)"></circle><circle r="25" cx="1240.54" cy="48.82" fill="url(&quot;#SvgjsRadialGradient1017&quot;)"></circle><circle r="25" cx="1288.84" cy="215.39" fill="url(&quot;#SvgjsRadialGradient1017&quot;)"></circle><circle r="25" cx="1296.08" cy="959.24" fill="url(&quot;#SvgjsRadialGradient1017&quot;)"></circle><circle r="25" cx="1446.05" cy="490.93" fill="url(&quot;#SvgjsRadialGradient1017&quot;)"></circle><circle r="5" cx="-39.66" cy="705.4" fill="#8ebacb"></circle><circle r="5" cx="-59.82" cy="824.48" fill="#8ebacb"></circle><circle r="5" cx="-50.03" cy="975.24" fill="#8ebacb"></circle><circle r="5" cx="96.32" cy="706.72" fill="#8ebacb"></circle><circle r="5" cx="109.03" cy="999.65" fill="#8ebacb"></circle><circle r="5" cx="215.66" cy="644.64" fill="#8ebacb"></circle><circle r="5" cx="229.38" cy="788.98" fill="#8ebacb"></circle><circle r="5" cx="187.53" cy="998.92" fill="#8ebacb"></circle><circle r="5" cx="358.53" cy="668.19" fill="#8ebacb"></circle><circle r="5" cx="387.87" cy="832.09" fill="#8ebacb"></circle><circle r="5" cx="541.75" cy="824.23" fill="#8ebacb"></circle><circle r="5" cx="561.62" cy="1000.05" fill="#8ebacb"></circle><circle r="5" cx="658.64" cy="704.47" fill="#8ebacb"></circle><circle r="5" cx="686.04" cy="830.07" fill="#8ebacb"></circle><circle r="5" cx="669.03" cy="1007.03" fill="#8ebacb"></circle><circle r="5" cx="811.13" cy="545.77" fill="#8ebacb"></circle><circle r="5" cx="857.11" cy="639.58" fill="#8ebacb"></circle><circle r="5" cx="834.72" cy="789.9" fill="#8ebacb"></circle><circle r="5" cx="840.5" cy="992.06" fill="#8ebacb"></circle><circle r="5" cx="1092.27" cy="238.74" fill="#8ebacb"></circle><circle r="5" cx="1120.08" cy="346.12" fill="#8ebacb"></circle><circle r="5" cx="1120.39" cy="656.77" fill="#8ebacb"></circle><circle r="5" cx="1147.88" cy="818.91" fill="#8ebacb"></circle><circle r="5" cx="1110.88" cy="1006.12" fill="#8ebacb"></circle><circle r="5" cx="1257.88" cy="-40.32" fill="#8ebacb"></circle><circle r="5" cx="1302.79" cy="357.83" fill="#8ebacb"></circle><circle r="5" cx="1253.61" cy="542.25" fill="#8ebacb"></circle><circle r="5" cx="1282.86" cy="698.96" fill="#8ebacb"></circle><circle r="5" cx="1278.51" cy="805.22" fill="#8ebacb"></circle><circle r="5" cx="1444.95" cy="-50.8" fill="#8ebacb"></circle><circle r="5" cx="1439.53" cy="73.06" fill="#8ebacb"></circle><circle r="5" cx="1418.11" cy="262.38" fill="#8ebacb"></circle><circle r="5" cx="1451.41" cy="337.54" fill="#8ebacb"></circle><circle r="5" cx="1429.04" cy="694.85" fill="#8ebacb"></circle><circle r="5" cx="1429.66" cy="848.35" fill="#8ebacb"></circle><circle r="5" cx="1453.72" cy="1006.8" fill="#8ebacb"></circle><circle r="5" cx="1595.69" cy="-53.34" fill="#8ebacb"></circle><circle r="5" cx="1567.62" cy="98.72" fill="#8ebacb"></circle><circle r="5" cx="1547.79" cy="219.57" fill="#8ebacb"></circle><circle r="5" cx="1576.94" cy="365.04" fill="#8ebacb"></circle><circle r="5" cx="1590.85" cy="508.49" fill="#8ebacb"></circle><circle r="5" cx="1560.56" cy="656.33" fill="#8ebacb"></circle><circle r="5" cx="1588.3" cy="844.18" fill="#8ebacb"></circle><circle r="5" cx="1606.33" cy="949.7" fill="#8ebacb"></circle></g><defs><mask id="SvgjsMask1016"><rect width="1440" height="800" fill="#ffffff"></rect></mask><radialGradient id="SvgjsRadialGradient1017"><stop stop-color="#ffffff" offset="0.1"></stop><stop stop-color="rgba(28, 116, 151, 1)" offset="0.2"></stop><stop stop-color="rgba(28, 116, 151, 0)" offset="1"></stop></radialGradient></defs></svg>