<svg xmlns="http://www.w3.org/2000/svg" version="1.1" xmlns:xlink="http://www.w3.org/1999/xlink" xmlns:svgjs="http://svgjs.dev/svgjs" width="1440" height="800" preserveAspectRatio="none" viewBox="0 0 1440 800"><g mask="url(&quot;#SvgjsMask1208&quot;)" fill="none"><rect width="1440" height="800" x="0" y="0" fill="rgba(23, 24, 25, 1)"></rect><path d="M78 800L878 0L1407.5 0L607.5 800z" fill="url(&quot;#SvgjsLinearGradient1209&quot;)"></path><path d="M516.2 800L1316.2 0L1755.7 0L955.7 800z" fill="url(&quot;#SvgjsLinearGradient1209&quot;)"></path><path d="M1373 800L573 0L279 0L1079 800z" fill="url(&quot;#SvgjsLinearGradient1210&quot;)"></path><path d="M940.8 800L140.79999999999995 0L-484.70000000000005 0L315.29999999999995 800z" fill="url(&quot;#SvgjsLinearGradient1210&quot;)"></path><path d="M882.8673931396537 800L1440 242.8673931396537L1440 800z" fill="url(&quot;#SvgjsLinearGradient1209&quot;)"></path><path d="M0 800L557.1326068603463 800L 0 242.8673931396537z" fill="url(&quot;#SvgjsLinearGradient1210&quot;)"></path></g><defs><mask id="SvgjsMask1208"><rect width="1440" height="800" fill="#ffffff"></rect></mask><linearGradient x1="0%" y1="100%" x2="100%" y2="0%" id="SvgjsLinearGradient1209"><stop stop-color="rgba(28, 116, 151, 0.61)" offset="0"></stop><stop stop-opacity="0" stop-color="rgba(28, 116, 151, 0.61)" offset="0.66"></stop></linearGradient><linearGradient x1="100%" y1="100%" x2="0%" y2="0%" id="SvgjsLinearGradient1210"><stop stop-color="rgba(28, 116, 151, 0.61)" offset="0"></stop><stop stop-opacity="0" stop-color="rgba(28, 116, 151, 0.61)" offset="0.66"></stop></linearGradient></defs></svg>