<svg id="Livello_1" data-name="Livello 1" xmlns="http://www.w3.org/2000/svg" viewBox="0 0 414.83 347.94"><defs><style>.cls-1{fill:#095778;}.cls-2{fill:#0b0c0e;}.cls-3{fill:#d2d8dd;}</style></defs><polygon class="cls-1" points="363 318.92 79.4 317.22 79.4 31.69 363 33.39 363 318.92"/><path class="cls-2" d="M235.09,232.47s-70.7,25.67-80.94,91.91c0,0-7.33,33.43,1.79,62.3,5.87,18.24,10.92,32,27.69,48.92,13.06,13.18,30.29,27.43,87.1,46.11,0,0,54.48,20.46,112.36,7.18,15.7-5.09,36.83-9.88,56.94-23.77s41.93-31.57,47-43.73a112.58,112.58,0,0,0,16.48-35.62S517.89,455.43,471.2,496c-12,10.89-36.39,30.78-59,43.38,0,0-23.85,15.41-64.51,21.66-13.24,2-123.57,19.35-192.7-40.16a155.92,155.92,0,0,1-48.07-60.3c-5.54-12.72-9.29-25.32-14.15-55.53-.43-15.24-11-67.35,21-110.44,5.67-7.53,10.56-18.14,43.46-40S235.09,232.47,235.09,232.47Z" transform="translate(-90.75 -232.47)"/><path class="cls-3" d="M116.14,335.61l-1.58,32.49a6.7,6.7,0,0,0,6.38,7l25,1.22a.92.92,0,0,1,.87,1l-.15,3a.91.91,0,0,1-.95.87c-5.22-.22-31.35-1.52-36.57-1.78a.91.91,0,0,1-.87-1l2.09-43.1a.92.92,0,0,1,1-.87l3.93.19A.92.92,0,0,1,116.14,335.61Z" transform="translate(-90.75 -232.47)"/><path class="cls-3" d="M111.6,396.69c-1.94,6.43-11.67,44.05,24.68,46.46,10.53-1,30.57-2.33,18.24-44.24a.92.92,0,0,0-.94-.66l-7.37.46s3.64,7.79,3.6,13.41,4.38,28.78-17.57,24.35c-6.51-1.09-15.8-7.48-15.74-24.72-.25-4.46-.59-8.69,2.44-13.31l-6.14-2.34A.91.91,0,0,0,111.6,396.69Z" transform="translate(-90.75 -232.47)"/><path class="cls-3" d="M168.79,499.54l-2.49-56.28a.92.92,0,0,1,1.72-.48l33.52,60.59-3.19-39.81a.91.91,0,0,1,1-1l5.23.51a.91.91,0,0,1,.82.87L208.06,520a.92.92,0,0,1-1.71.5L173.53,463,175.61,503a.91.91,0,0,1-1.45.79l-5-3.57A.93.93,0,0,1,168.79,499.54Z" transform="translate(-90.75 -232.47)"/><path class="cls-3" d="M247.35,485.89l-20.25,52a.91.91,0,0,0,.56,1.2l5,1.72a.92.92,0,0,0,1.17-.58l7.94-23.9,12.94,3.44,6,27.42a.92.92,0,0,0,.77.71l6.31.83a.91.91,0,0,0,1-1.18l-19.72-61.58A.91.91,0,0,0,247.35,485.89Zm-5,23.88,5.92-13.53,4.73,16Z" transform="translate(-90.75 -232.47)"/><path class="cls-3" d="M207.47,448.77,230.24,373l-26.94-9.07s-11.68-4.05-20.32.86a1,1,0,0,1-1,0l-4.73-2.66a1,1,0,0,1-.17-1.63c1.9-1.65,6.64-4.78,14.91-4.31,4.27.38,11.17,1,17.1,3.32l28.32,8.57s33.72,6,56.63,1.34a1,1,0,0,1,1.06.49l1.95,3.46a1,1,0,0,1-.6,1.45A73.29,73.29,0,0,1,279,377.22c-10.89.17-18.89.43-25.95-.43L238.18,375,214.68,453a1,1,0,0,1-1.52.53l-5.29-3.6A1,1,0,0,1,207.47,448.77Z" transform="translate(-90.75 -232.47)"/><path class="cls-3" d="M227.17,457.39l18.41-58.19a1,1,0,0,1,1.17-.68l5.86,1.28a1,1,0,0,1,.74,1.27l-18.67,58.84a1,1,0,0,1-1.28.64l-5.6-1.91A1,1,0,0,1,227.17,457.39Z" transform="translate(-90.75 -232.47)"/><circle class="cls-3" cx="161.35" cy="225.76" r="4.56"/><path class="cls-3" d="M285.45,474l19.4-97.25a1,1,0,0,1,1-.81h6.5a1,1,0,0,1,1,1.17l-6.1,35.94s27.23-7.88,48.44-33.36a1,1,0,0,1,1.19-.26l5.87,2.8a1,1,0,0,1,.36,1.5c-3.42,4.46-18.56,22.89-40.25,30.38,0,0,12,1.41,13.37,19.41s4.89,41.74,11,50.93,20.77,38.94,24.59,43.66S379.3,541,388,549.3s21.44,19.83,30.38,22.47S443.18,575,447,569.35c1.53-1.47,4.66-8.3-2.17-15.19-2.11-1.3-2.95-2.84-11.85-2.76a1,1,0,0,1-1-.83l-.5-2.87a1,1,0,0,1,.92-1.17c3.69-.23,15.73-.34,21.36,7.5,6.7,9.32,5.3,20.23-9.32,25.59-8,1.09-20.61,1.54-28.78-1.91-7-2.17-20-7.81-27.94-16.58s-21.62-24.42-26.21-35c-5.45-9.62-23.92-41.62-25.62-47s-7.49-40.85-8.6-46.81a16.67,16.67,0,0,0-12.49-13.6c-2.23-.51-8.61-2.29-9.63,3.39-.94,5.19-8.87,46.94-10.22,54a1,1,0,0,1-1.21.78l-7.55-1.81A1,1,0,0,1,285.45,474Z" transform="translate(-90.75 -232.47)"/><path class="cls-3" d="M369.37,490.59a213.42,213.42,0,0,1-1.13-44.94c-.13-9,4.51-43.24,16.77-61.28,0,0,12.08-17.45,22.8,3.57S424,441.82,424,441.82l5.81,26.48s3.06,6.2,7.15,5.43,7.27-4.28,3.31-8.49c-.27-.66.37-1.36,1.64-.59s6.79,7,2.32,10.61a14.24,14.24,0,0,1-18.45-.19c-6.38-5.42-11.36-41.68-11.36-41.68s-10.89-42.89-15.57-44.6-8.94.09-12.85,8.34S377,438,377,438s-1.37,37.44-.6,42.12c.58,3.56,1.46,7.56,1.85,9.28a1,1,0,0,1-.65,1.16c-1.64.56-5.28,1.62-7.56.84A1,1,0,0,1,369.37,490.59Z" transform="translate(-90.75 -232.47)"/><path class="cls-3" d="M359.25,445.79l79.39-8.48a1,1,0,0,0,.73-1.54L437,432a1,1,0,0,0-.95-.46l-77.31,7.92a1,1,0,0,0-.9,1.07l.31,4.3A1,1,0,0,0,359.25,445.79Z" transform="translate(-90.75 -232.47)"/><path class="cls-1" d="M398.62,380s-3.79-1.58-6.94.3a9,9,0,0,0-2.13,3.06,4.5,4.5,0,0,1,1.92-2C392.66,380.85,395.85,382,398.62,380Z" transform="translate(-90.75 -232.47)"/></svg>